<svg width="50" height="50" viewBox="0 0 50 50" fill="none" xmlns="http://www.w3.org/2000/svg">
<g id="ant-design:linkedin-outlined">
<g id="Vector" filter="url(#filter0_d_736_5124)">
<path d="M41.1724 5.39587H8.8263C7.11602 5.39587 5.72852 6.78337 5.72852 8.49366V40.8398C5.72852 42.55 7.11602 43.9375 8.8263 43.9375H41.1724C42.8827 43.9375 44.2702 42.55 44.2702 40.8398V8.49366C44.2702 6.78337 42.8827 5.39587 41.1724 5.39587ZM41.1724 40.8542C19.5987 40.8494 8.81185 40.8446 8.81185 40.8398C8.81667 19.2661 8.82148 8.47921 8.8263 8.47921C30.4 8.48403 41.1869 8.48884 41.1869 8.49366C41.182 30.0674 41.1772 40.8542 41.1724 40.8542ZM11.4423 19.8442H17.1609V38.2382H11.4423V19.8442ZM14.304 17.3293C16.1299 17.3293 17.6186 15.8455 17.6186 14.0148C17.6186 13.5795 17.5329 13.1485 17.3663 12.7463C17.1997 12.3442 16.9556 11.9788 16.6478 11.671C16.34 11.3632 15.9746 11.1191 15.5725 10.9525C15.1703 10.7859 14.7393 10.7002 14.304 10.7002C13.8688 10.7002 13.4377 10.7859 13.0356 10.9525C12.6335 11.1191 12.2681 11.3632 11.9603 11.671C11.6525 11.9788 11.4083 12.3442 11.2418 12.7463C11.0752 13.1485 10.9895 13.5795 10.9895 14.0148C10.9846 15.8455 12.4685 17.3293 14.304 17.3293ZM26.4591 29.1375C26.4591 26.7383 26.9168 24.4162 29.8893 24.4162C32.8185 24.4162 32.8619 27.1575 32.8619 29.2917V38.2382H38.5757V28.1499C38.5757 23.1973 37.5061 19.3865 31.7201 19.3865C28.9402 19.3865 27.0758 20.9137 26.3098 22.359H26.2327V19.8442H20.7453V38.2382H26.4591V29.1375Z" fill="#134074"/>
</g>
</g>
<defs>
<filter id="filter0_d_736_5124" x="3.75518" y="5.39587" width="42.4877" height="42.4883" filterUnits="userSpaceOnUse" color-interpolation-filters="sRGB">
<feFlood flood-opacity="0" result="BackgroundImageFix"/>
<feColorMatrix in="SourceAlpha" type="matrix" values="0 0 0 0 0 0 0 0 0 0 0 0 0 0 0 0 0 0 127 0" result="hardAlpha"/>
<feOffset dy="1.97333"/>
<feGaussianBlur stdDeviation="0.986667"/>
<feComposite in2="hardAlpha" operator="out"/>
<feColorMatrix type="matrix" values="0 0 0 0 0 0 0 0 0 0 0 0 0 0 0 0 0 0 0.25 0"/>
<feBlend mode="normal" in2="BackgroundImageFix" result="effect1_dropShadow_736_5124"/>
<feBlend mode="normal" in="SourceGraphic" in2="effect1_dropShadow_736_5124" result="shape"/>
</filter>
</defs>
</svg>
