<svg width="50" height="50" viewBox="0 0 50 50" fill="none" xmlns="http://www.w3.org/2000/svg">
<g id="mdi:instagram" clip-path="url(#clip0_736_5122)">
<g id="Vector" filter="url(#filter0_d_736_5122)">
<path d="M16.0336 4.11115H33.3002C39.878 4.11115 45.2224 9.45559 45.2224 16.0334V33.3C45.2224 36.462 43.9664 39.4945 41.7305 41.7303C39.4947 43.9662 36.4622 45.2223 33.3002 45.2223H16.0336C9.45577 45.2223 4.11133 39.8778 4.11133 33.3V16.0334C4.11133 12.8714 5.36742 9.83893 7.60327 7.60308C9.83912 5.36723 12.8716 4.11115 16.0336 4.11115ZM15.6224 8.22226C13.6598 8.22226 11.7776 9.0019 10.3899 10.3897C9.00208 11.7774 8.22244 13.6597 8.22244 15.6223V33.7111C8.22244 37.8017 11.5319 41.1111 15.6224 41.1111H33.7113C35.6739 41.1111 37.5562 40.3315 38.9439 38.9437C40.3317 37.556 41.1113 35.6737 41.1113 33.7111V15.6223C41.1113 11.5317 37.8019 8.22226 33.7113 8.22226H15.6224ZM35.4586 11.3056C36.14 11.3056 36.7936 11.5763 37.2754 12.0582C37.7573 12.54 38.028 13.1936 38.028 13.875C38.028 14.5565 37.7573 15.21 37.2754 15.6919C36.7936 16.1738 36.14 16.4445 35.4586 16.4445C34.7771 16.4445 34.1235 16.1738 33.6417 15.6919C33.1598 15.21 32.8891 14.5565 32.8891 13.875C32.8891 13.1936 33.1598 12.54 33.6417 12.0582C34.1235 11.5763 34.7771 11.3056 35.4586 11.3056ZM24.6669 14.3889C27.3927 14.3889 30.0069 15.4718 31.9344 17.3992C33.8618 19.3267 34.9447 21.9409 34.9447 24.6667C34.9447 27.3925 33.8618 30.0067 31.9344 31.9342C30.0069 33.8616 27.3927 34.9445 24.6669 34.9445C21.941 34.9445 19.3269 33.8616 17.3994 31.9342C15.4719 30.0067 14.3891 27.3925 14.3891 24.6667C14.3891 21.9409 15.4719 19.3267 17.3994 17.3992C19.3269 15.4718 21.941 14.3889 24.6669 14.3889ZM24.6669 18.5C23.0314 18.5 21.4629 19.1497 20.3064 20.3062C19.1499 21.4627 18.5002 23.0312 18.5002 24.6667C18.5002 26.3022 19.1499 27.8707 20.3064 29.0272C21.4629 30.1837 23.0314 30.8334 24.6669 30.8334C26.3024 30.8334 27.8709 30.1837 29.0274 29.0272C30.1839 27.8707 30.8336 26.3022 30.8336 24.6667C30.8336 23.0312 30.1839 21.4627 29.0274 20.3062C27.8709 19.1497 26.3024 18.5 24.6669 18.5Z" fill="#134074"/>
</g>
</g>
<defs>
<filter id="filter0_d_736_5122" x="2.13799" y="4.11115" width="45.058" height="45.0578" filterUnits="userSpaceOnUse" color-interpolation-filters="sRGB">
<feFlood flood-opacity="0" result="BackgroundImageFix"/>
<feColorMatrix in="SourceAlpha" type="matrix" values="0 0 0 0 0 0 0 0 0 0 0 0 0 0 0 0 0 0 127 0" result="hardAlpha"/>
<feOffset dy="1.97333"/>
<feGaussianBlur stdDeviation="0.986667"/>
<feComposite in2="hardAlpha" operator="out"/>
<feColorMatrix type="matrix" values="0 0 0 0 0 0 0 0 0 0 0 0 0 0 0 0 0 0 0.25 0"/>
<feBlend mode="normal" in2="BackgroundImageFix" result="effect1_dropShadow_736_5122"/>
<feBlend mode="normal" in="SourceGraphic" in2="effect1_dropShadow_736_5122" result="shape"/>
</filter>
<clipPath id="clip0_736_5122">
<rect width="49.3333" height="49.3333" fill="white"/>
</clipPath>
</defs>
</svg>
